<mxfile host="app.diagrams.net" modified="2024-03-21T22:49:39.848Z" agent="Mozilla/5.0 (X11; Linux x86_64; rv:123.0) Gecko/20100101 Firefox/123.0" etag="n-hawSS44xP2i-XNZCIg" version="24.0.7" type="github" pages="4">
  <diagram name="Page-1" id="5g0Yd5IXbYsbMzt2oUqg">
    <mxGraphModel dx="1434" dy="750" grid="1" gridSize="10" guides="1" tooltips="1" connect="1" arrows="1" fold="1" page="1" pageScale="1" pageWidth="850" pageHeight="1100" math="0" shadow="0">
      <root>
        <mxCell id="0" />
        <mxCell id="1" parent="0" />
        <mxCell id="bThyTMWPluWL3778EPjQ-4" value="" style="rounded=0;whiteSpace=wrap;html=1;" vertex="1" parent="1">
          <mxGeometry x="40" y="80" width="320" height="140" as="geometry" />
        </mxCell>
        <mxCell id="bThyTMWPluWL3778EPjQ-5" value="&lt;div style=&quot;font-size: 18px;&quot;&gt;&lt;font style=&quot;font-size: 18px;&quot;&gt;A: Inicio -&amp;gt; 10 -&amp;gt; 32 -&amp;gt; 43 -&amp;gt; 64 -&amp;gt; 85&lt;/font&gt;&lt;/div&gt;&lt;div style=&quot;font-size: 18px;&quot;&gt;&lt;font style=&quot;font-size: 18px;&quot;&gt;&lt;br&gt;&lt;/font&gt;&lt;/div&gt;&lt;div style=&quot;font-size: 18px;&quot;&gt;&lt;font style=&quot;font-size: 18px;&quot;&gt;&lt;font style=&quot;font-size: 18px;&quot;&gt;B: Inicio -&amp;gt; 10 -&amp;gt; 7 -&amp;gt; 32&lt;/font&gt;&lt;font style=&quot;font-size: 18px;&quot;&gt;&lt;br&gt;&lt;/font&gt;&lt;/font&gt;&lt;/div&gt;" style="text;html=1;align=center;verticalAlign=middle;whiteSpace=wrap;rounded=0;" vertex="1" parent="1">
          <mxGeometry x="40" y="80" width="320" height="140" as="geometry" />
        </mxCell>
        <mxCell id="bThyTMWPluWL3778EPjQ-6" value="&lt;div style=&quot;font-size: 15px;&quot;&gt;FilaAux: Inicio -&amp;gt;&lt;/div&gt;&lt;div style=&quot;font-size: 15px;&quot;&gt;&lt;br style=&quot;font-size: 15px;&quot;&gt;&lt;/div&gt;&lt;div style=&quot;font-size: 15px;&quot;&gt;FilaResult: Inicio -&amp;gt;&lt;br style=&quot;font-size: 15px;&quot;&gt;&lt;/div&gt;" style="text;html=1;align=center;verticalAlign=middle;whiteSpace=wrap;rounded=0;fontSize=15;" vertex="1" parent="1">
          <mxGeometry y="240" width="230" height="60" as="geometry" />
        </mxCell>
        <mxCell id="bThyTMWPluWL3778EPjQ-7" value="" style="rounded=0;whiteSpace=wrap;html=1;" vertex="1" parent="1">
          <mxGeometry x="40" y="20" width="90" height="40" as="geometry" />
        </mxCell>
        <mxCell id="bThyTMWPluWL3778EPjQ-8" value="0.0" style="text;html=1;align=center;verticalAlign=middle;whiteSpace=wrap;rounded=0;" vertex="1" parent="1">
          <mxGeometry x="40" y="20" width="90" height="40" as="geometry" />
        </mxCell>
        <mxCell id="bThyTMWPluWL3778EPjQ-9" value="" style="rounded=0;whiteSpace=wrap;html=1;" vertex="1" parent="1">
          <mxGeometry x="450" y="80" width="320" height="140" as="geometry" />
        </mxCell>
        <mxCell id="bThyTMWPluWL3778EPjQ-10" value="&lt;div style=&quot;font-size: 18px;&quot;&gt;&lt;font style=&quot;font-size: 18px;&quot;&gt;A: Inicio -&amp;gt; 32 -&amp;gt; 43 -&amp;gt; 64 -&amp;gt; 85&lt;/font&gt;&lt;/div&gt;&lt;div style=&quot;font-size: 18px;&quot;&gt;&lt;font style=&quot;font-size: 18px;&quot;&gt;&lt;br&gt;&lt;/font&gt;&lt;/div&gt;&lt;div style=&quot;font-size: 18px;&quot;&gt;&lt;font style=&quot;font-size: 18px;&quot;&gt;&lt;font style=&quot;font-size: 18px;&quot;&gt;B: Inicio -&amp;gt; 10 -&amp;gt; 7 -&amp;gt; 32&lt;/font&gt;&lt;font style=&quot;font-size: 18px;&quot;&gt;&lt;br&gt;&lt;/font&gt;&lt;/font&gt;&lt;/div&gt;" style="text;html=1;align=center;verticalAlign=middle;whiteSpace=wrap;rounded=0;" vertex="1" parent="1">
          <mxGeometry x="450" y="80" width="320" height="140" as="geometry" />
        </mxCell>
        <mxCell id="bThyTMWPluWL3778EPjQ-11" value="&lt;div style=&quot;font-size: 15px;&quot;&gt;FilaAux: Inicio -&amp;gt;&lt;br style=&quot;font-size: 15px;&quot;&gt;&lt;/div&gt;&lt;div style=&quot;font-size: 15px;&quot;&gt;&lt;br style=&quot;font-size: 15px;&quot;&gt;&lt;/div&gt;&lt;div style=&quot;font-size: 15px;&quot;&gt;FilaResult: Inicio -&amp;gt; 10&lt;br style=&quot;font-size: 15px;&quot;&gt;&lt;/div&gt;" style="text;html=1;align=center;verticalAlign=middle;whiteSpace=wrap;rounded=0;fontSize=15;" vertex="1" parent="1">
          <mxGeometry x="410" y="240" width="230" height="60" as="geometry" />
        </mxCell>
        <mxCell id="bThyTMWPluWL3778EPjQ-12" value="" style="rounded=0;whiteSpace=wrap;html=1;" vertex="1" parent="1">
          <mxGeometry x="450" y="20" width="90" height="40" as="geometry" />
        </mxCell>
        <mxCell id="bThyTMWPluWL3778EPjQ-13" value="1" style="text;html=1;align=center;verticalAlign=middle;whiteSpace=wrap;rounded=0;" vertex="1" parent="1">
          <mxGeometry x="450" y="20" width="90" height="40" as="geometry" />
        </mxCell>
        <mxCell id="bThyTMWPluWL3778EPjQ-14" value="" style="rounded=0;whiteSpace=wrap;html=1;" vertex="1" parent="1">
          <mxGeometry x="40" y="410" width="320" height="140" as="geometry" />
        </mxCell>
        <mxCell id="bThyTMWPluWL3778EPjQ-15" value="&lt;div style=&quot;font-size: 18px;&quot;&gt;&lt;font style=&quot;font-size: 18px;&quot;&gt;A: Inicio -&amp;gt; 43 -&amp;gt; 64 -&amp;gt; 85&lt;/font&gt;&lt;/div&gt;&lt;div style=&quot;font-size: 18px;&quot;&gt;&lt;font style=&quot;font-size: 18px;&quot;&gt;&lt;br&gt;&lt;/font&gt;&lt;/div&gt;&lt;div style=&quot;font-size: 18px;&quot;&gt;&lt;font style=&quot;font-size: 18px;&quot;&gt;&lt;font style=&quot;font-size: 18px;&quot;&gt;B: Inicio -&amp;gt; 10 -&amp;gt; 7 -&amp;gt; 32&lt;/font&gt;&lt;font style=&quot;font-size: 18px;&quot;&gt;&lt;br&gt;&lt;/font&gt;&lt;/font&gt;&lt;/div&gt;" style="text;html=1;align=center;verticalAlign=middle;whiteSpace=wrap;rounded=0;" vertex="1" parent="1">
          <mxGeometry x="40" y="410" width="320" height="140" as="geometry" />
        </mxCell>
        <mxCell id="bThyTMWPluWL3778EPjQ-16" value="&lt;div style=&quot;font-size: 15px;&quot;&gt;FilaAux: Inicio -&amp;gt; 32&lt;br style=&quot;font-size: 15px;&quot;&gt;&lt;/div&gt;&lt;div style=&quot;font-size: 15px;&quot;&gt;&lt;br style=&quot;font-size: 15px;&quot;&gt;&lt;/div&gt;&lt;div style=&quot;font-size: 15px;&quot;&gt;FilaResult: Inicio -&amp;gt; 10&lt;br style=&quot;font-size: 15px;&quot;&gt;&lt;/div&gt;" style="text;html=1;align=center;verticalAlign=middle;whiteSpace=wrap;rounded=0;fontSize=15;" vertex="1" parent="1">
          <mxGeometry y="570" width="230" height="60" as="geometry" />
        </mxCell>
        <mxCell id="bThyTMWPluWL3778EPjQ-17" value="" style="rounded=0;whiteSpace=wrap;html=1;" vertex="1" parent="1">
          <mxGeometry x="40" y="350" width="90" height="40" as="geometry" />
        </mxCell>
        <mxCell id="bThyTMWPluWL3778EPjQ-18" value="2" style="text;html=1;align=center;verticalAlign=middle;whiteSpace=wrap;rounded=0;" vertex="1" parent="1">
          <mxGeometry x="40" y="350" width="90" height="40" as="geometry" />
        </mxCell>
        <mxCell id="bThyTMWPluWL3778EPjQ-19" value="" style="rounded=0;whiteSpace=wrap;html=1;" vertex="1" parent="1">
          <mxGeometry x="450" y="410" width="320" height="140" as="geometry" />
        </mxCell>
        <mxCell id="bThyTMWPluWL3778EPjQ-20" value="&lt;div style=&quot;font-size: 18px;&quot;&gt;&lt;font style=&quot;font-size: 18px;&quot;&gt;A: Inicio -&amp;gt; 64 -&amp;gt; 85&lt;/font&gt;&lt;/div&gt;&lt;div style=&quot;font-size: 18px;&quot;&gt;&lt;font style=&quot;font-size: 18px;&quot;&gt;&lt;br&gt;&lt;/font&gt;&lt;/div&gt;&lt;div style=&quot;font-size: 18px;&quot;&gt;&lt;font style=&quot;font-size: 18px;&quot;&gt;&lt;font style=&quot;font-size: 18px;&quot;&gt;B: Inicio -&amp;gt; 10 -&amp;gt; 7 -&amp;gt; 32&lt;/font&gt;&lt;font style=&quot;font-size: 18px;&quot;&gt;&lt;br&gt;&lt;/font&gt;&lt;/font&gt;&lt;/div&gt;" style="text;html=1;align=center;verticalAlign=middle;whiteSpace=wrap;rounded=0;" vertex="1" parent="1">
          <mxGeometry x="450" y="410" width="320" height="140" as="geometry" />
        </mxCell>
        <mxCell id="bThyTMWPluWL3778EPjQ-21" value="&lt;div style=&quot;font-size: 15px;&quot;&gt;FilaAux: Inicio -&amp;gt; 32 -&amp;gt; 43&lt;br style=&quot;font-size: 15px;&quot;&gt;&lt;/div&gt;&lt;div style=&quot;font-size: 15px;&quot;&gt;&lt;br style=&quot;font-size: 15px;&quot;&gt;&lt;/div&gt;&lt;div style=&quot;font-size: 15px;&quot;&gt;FilaResult: Inicio -&amp;gt; 10&lt;br style=&quot;font-size: 15px;&quot;&gt;&lt;/div&gt;" style="text;html=1;align=center;verticalAlign=middle;whiteSpace=wrap;rounded=0;fontSize=15;" vertex="1" parent="1">
          <mxGeometry x="410" y="570" width="230" height="60" as="geometry" />
        </mxCell>
        <mxCell id="bThyTMWPluWL3778EPjQ-22" value="" style="rounded=0;whiteSpace=wrap;html=1;" vertex="1" parent="1">
          <mxGeometry x="450" y="350" width="90" height="40" as="geometry" />
        </mxCell>
        <mxCell id="bThyTMWPluWL3778EPjQ-23" value="3" style="text;html=1;align=center;verticalAlign=middle;whiteSpace=wrap;rounded=0;" vertex="1" parent="1">
          <mxGeometry x="450" y="350" width="90" height="40" as="geometry" />
        </mxCell>
        <mxCell id="bThyTMWPluWL3778EPjQ-24" value="" style="rounded=0;whiteSpace=wrap;html=1;" vertex="1" parent="1">
          <mxGeometry x="40" y="740" width="320" height="140" as="geometry" />
        </mxCell>
        <mxCell id="bThyTMWPluWL3778EPjQ-25" value="&lt;div style=&quot;font-size: 18px;&quot;&gt;&lt;font style=&quot;font-size: 18px;&quot;&gt;A: Inicio -&amp;gt; 85&lt;/font&gt;&lt;/div&gt;&lt;div style=&quot;font-size: 18px;&quot;&gt;&lt;font style=&quot;font-size: 18px;&quot;&gt;&lt;br&gt;&lt;/font&gt;&lt;/div&gt;&lt;div style=&quot;font-size: 18px;&quot;&gt;&lt;font style=&quot;font-size: 18px;&quot;&gt;&lt;font style=&quot;font-size: 18px;&quot;&gt;B: Inicio -&amp;gt; 10 -&amp;gt; 7 -&amp;gt; 32&lt;/font&gt;&lt;font style=&quot;font-size: 18px;&quot;&gt;&lt;br&gt;&lt;/font&gt;&lt;/font&gt;&lt;/div&gt;" style="text;html=1;align=center;verticalAlign=middle;whiteSpace=wrap;rounded=0;" vertex="1" parent="1">
          <mxGeometry x="40" y="740" width="320" height="140" as="geometry" />
        </mxCell>
        <mxCell id="bThyTMWPluWL3778EPjQ-26" value="&lt;div style=&quot;font-size: 15px;&quot;&gt;FilaAux: Inicio -&amp;gt; 32 -&amp;gt; 43 -&amp;gt; 64&lt;br style=&quot;font-size: 15px;&quot;&gt;&lt;/div&gt;&lt;div style=&quot;font-size: 15px;&quot;&gt;&lt;br style=&quot;font-size: 15px;&quot;&gt;&lt;/div&gt;&lt;div style=&quot;font-size: 15px;&quot;&gt;FilaResult: Inicio -&amp;gt; 10&lt;br style=&quot;font-size: 15px;&quot;&gt;&lt;/div&gt;" style="text;html=1;align=center;verticalAlign=middle;whiteSpace=wrap;rounded=0;fontSize=15;" vertex="1" parent="1">
          <mxGeometry y="900" width="230" height="60" as="geometry" />
        </mxCell>
        <mxCell id="bThyTMWPluWL3778EPjQ-27" value="" style="rounded=0;whiteSpace=wrap;html=1;" vertex="1" parent="1">
          <mxGeometry x="40" y="680" width="90" height="40" as="geometry" />
        </mxCell>
        <mxCell id="bThyTMWPluWL3778EPjQ-28" value="4" style="text;html=1;align=center;verticalAlign=middle;whiteSpace=wrap;rounded=0;" vertex="1" parent="1">
          <mxGeometry x="40" y="680" width="90" height="40" as="geometry" />
        </mxCell>
        <mxCell id="bThyTMWPluWL3778EPjQ-29" value="" style="rounded=0;whiteSpace=wrap;html=1;" vertex="1" parent="1">
          <mxGeometry x="450" y="740" width="320" height="140" as="geometry" />
        </mxCell>
        <mxCell id="bThyTMWPluWL3778EPjQ-30" value="&lt;div style=&quot;font-size: 18px;&quot;&gt;&lt;font style=&quot;font-size: 18px;&quot;&gt;A: Inicio -&amp;gt;&lt;br&gt;&lt;/font&gt;&lt;/div&gt;&lt;div style=&quot;font-size: 18px;&quot;&gt;&lt;font style=&quot;font-size: 18px;&quot;&gt;&lt;br&gt;&lt;/font&gt;&lt;/div&gt;&lt;div style=&quot;font-size: 18px;&quot;&gt;&lt;font style=&quot;font-size: 18px;&quot;&gt;&lt;font style=&quot;font-size: 18px;&quot;&gt;B: Inicio -&amp;gt; 10 -&amp;gt; 7 -&amp;gt; 32&lt;/font&gt;&lt;font style=&quot;font-size: 18px;&quot;&gt;&lt;br&gt;&lt;/font&gt;&lt;/font&gt;&lt;/div&gt;" style="text;html=1;align=center;verticalAlign=middle;whiteSpace=wrap;rounded=0;" vertex="1" parent="1">
          <mxGeometry x="450" y="740" width="320" height="140" as="geometry" />
        </mxCell>
        <mxCell id="bThyTMWPluWL3778EPjQ-31" value="&lt;div style=&quot;font-size: 15px;&quot;&gt;FilaAux: Inicio -&amp;gt; 32 -&amp;gt; 43 -&amp;gt; 64 -&amp;gt; 85&lt;br style=&quot;font-size: 15px;&quot;&gt;&lt;/div&gt;&lt;div style=&quot;font-size: 15px;&quot;&gt;&lt;br style=&quot;font-size: 15px;&quot;&gt;&lt;/div&gt;&lt;div style=&quot;font-size: 15px;&quot;&gt;FilaResult: Inicio -&amp;gt; 10&lt;br style=&quot;font-size: 15px;&quot;&gt;&lt;/div&gt;" style="text;html=1;align=center;verticalAlign=middle;whiteSpace=wrap;rounded=0;fontSize=15;" vertex="1" parent="1">
          <mxGeometry x="410" y="900" width="280" height="60" as="geometry" />
        </mxCell>
        <mxCell id="bThyTMWPluWL3778EPjQ-32" value="" style="rounded=0;whiteSpace=wrap;html=1;" vertex="1" parent="1">
          <mxGeometry x="450" y="680" width="90" height="40" as="geometry" />
        </mxCell>
        <mxCell id="bThyTMWPluWL3778EPjQ-33" value="5" style="text;html=1;align=center;verticalAlign=middle;whiteSpace=wrap;rounded=0;" vertex="1" parent="1">
          <mxGeometry x="450" y="680" width="90" height="40" as="geometry" />
        </mxCell>
      </root>
    </mxGraphModel>
  </diagram>
  <diagram name="Page-2" id="-iJvT_hOwHLZns0qrKmi">
    <mxGraphModel dx="1434" dy="750" grid="1" gridSize="10" guides="1" tooltips="1" connect="1" arrows="1" fold="1" page="1" pageScale="1" pageWidth="850" pageHeight="1100" math="0" shadow="0">
      <root>
        <mxCell id="IJjqmRPqJ1MEidAl5n88-0" />
        <mxCell id="IJjqmRPqJ1MEidAl5n88-1" parent="IJjqmRPqJ1MEidAl5n88-0" />
        <mxCell id="IJjqmRPqJ1MEidAl5n88-27" value="" style="rounded=0;whiteSpace=wrap;html=1;" vertex="1" parent="IJjqmRPqJ1MEidAl5n88-1">
          <mxGeometry x="50" y="80" width="320" height="140" as="geometry" />
        </mxCell>
        <mxCell id="IJjqmRPqJ1MEidAl5n88-28" value="&lt;div style=&quot;font-size: 18px;&quot;&gt;&lt;font style=&quot;font-size: 18px;&quot;&gt;A: Inicio -&amp;gt;&lt;br&gt;&lt;/font&gt;&lt;/div&gt;&lt;div style=&quot;font-size: 18px;&quot;&gt;&lt;font style=&quot;font-size: 18px;&quot;&gt;&lt;br&gt;&lt;/font&gt;&lt;/div&gt;&lt;div style=&quot;font-size: 18px;&quot;&gt;&lt;font style=&quot;font-size: 18px;&quot;&gt;&lt;font style=&quot;font-size: 18px;&quot;&gt;B: Inicio -&amp;gt; 7 -&amp;gt; 32&lt;/font&gt;&lt;font style=&quot;font-size: 18px;&quot;&gt;&lt;br&gt;&lt;/font&gt;&lt;/font&gt;&lt;/div&gt;" style="text;html=1;align=center;verticalAlign=middle;whiteSpace=wrap;rounded=0;" vertex="1" parent="IJjqmRPqJ1MEidAl5n88-1">
          <mxGeometry x="50" y="80" width="320" height="140" as="geometry" />
        </mxCell>
        <mxCell id="IJjqmRPqJ1MEidAl5n88-29" value="&lt;div style=&quot;font-size: 15px;&quot;&gt;FilaAux: Inicio -&amp;gt; 32 -&amp;gt; 43 -&amp;gt; 64 -&amp;gt; 85&lt;br style=&quot;font-size: 15px;&quot;&gt;&lt;/div&gt;&lt;div style=&quot;font-size: 15px;&quot;&gt;&lt;br style=&quot;font-size: 15px;&quot;&gt;&lt;/div&gt;&lt;div style=&quot;font-size: 15px;&quot;&gt;FilaResult: Inicio -&amp;gt; 10&lt;br style=&quot;font-size: 15px;&quot;&gt;&lt;/div&gt;" style="text;html=1;align=center;verticalAlign=middle;whiteSpace=wrap;rounded=0;fontSize=15;" vertex="1" parent="IJjqmRPqJ1MEidAl5n88-1">
          <mxGeometry x="10" y="240" width="280" height="60" as="geometry" />
        </mxCell>
        <mxCell id="IJjqmRPqJ1MEidAl5n88-30" value="" style="rounded=0;whiteSpace=wrap;html=1;" vertex="1" parent="IJjqmRPqJ1MEidAl5n88-1">
          <mxGeometry x="50" y="20" width="90" height="40" as="geometry" />
        </mxCell>
        <mxCell id="IJjqmRPqJ1MEidAl5n88-31" value="6" style="text;html=1;align=center;verticalAlign=middle;whiteSpace=wrap;rounded=0;" vertex="1" parent="IJjqmRPqJ1MEidAl5n88-1">
          <mxGeometry x="50" y="20" width="90" height="40" as="geometry" />
        </mxCell>
        <mxCell id="9rWktrnE6TO9M0ugiFey-0" value="" style="rounded=0;whiteSpace=wrap;html=1;" vertex="1" parent="IJjqmRPqJ1MEidAl5n88-1">
          <mxGeometry x="450" y="80" width="320" height="140" as="geometry" />
        </mxCell>
        <mxCell id="9rWktrnE6TO9M0ugiFey-1" value="&lt;div style=&quot;font-size: 18px;&quot;&gt;&lt;font style=&quot;font-size: 18px;&quot;&gt;A: Inicio -&amp;gt;&lt;br&gt;&lt;/font&gt;&lt;/div&gt;&lt;div style=&quot;font-size: 18px;&quot;&gt;&lt;font style=&quot;font-size: 18px;&quot;&gt;&lt;br&gt;&lt;/font&gt;&lt;/div&gt;&lt;div style=&quot;font-size: 18px;&quot;&gt;&lt;font style=&quot;font-size: 18px;&quot;&gt;&lt;font style=&quot;font-size: 18px;&quot;&gt;B: Inicio -&amp;gt; 7 -&amp;gt; 32&lt;/font&gt;&lt;font style=&quot;font-size: 18px;&quot;&gt;&lt;br&gt;&lt;/font&gt;&lt;/font&gt;&lt;/div&gt;" style="text;html=1;align=center;verticalAlign=middle;whiteSpace=wrap;rounded=0;" vertex="1" parent="IJjqmRPqJ1MEidAl5n88-1">
          <mxGeometry x="450" y="80" width="320" height="140" as="geometry" />
        </mxCell>
        <mxCell id="9rWktrnE6TO9M0ugiFey-2" value="&lt;div style=&quot;font-size: 15px;&quot;&gt;FilaAux: Inicio -&amp;gt; 32 -&amp;gt; 43 -&amp;gt; 64 -&amp;gt; 85&lt;br style=&quot;font-size: 15px;&quot;&gt;&lt;/div&gt;&lt;div style=&quot;font-size: 15px;&quot;&gt;&lt;br style=&quot;font-size: 15px;&quot;&gt;&lt;/div&gt;&lt;div style=&quot;font-size: 15px;&quot;&gt;FilaResult: Inicio -&amp;gt; 10&lt;br style=&quot;font-size: 15px;&quot;&gt;&lt;/div&gt;" style="text;html=1;align=center;verticalAlign=middle;whiteSpace=wrap;rounded=0;fontSize=15;" vertex="1" parent="IJjqmRPqJ1MEidAl5n88-1">
          <mxGeometry x="410" y="240" width="280" height="60" as="geometry" />
        </mxCell>
        <mxCell id="9rWktrnE6TO9M0ugiFey-3" value="" style="rounded=0;whiteSpace=wrap;html=1;" vertex="1" parent="IJjqmRPqJ1MEidAl5n88-1">
          <mxGeometry x="450" y="20" width="90" height="40" as="geometry" />
        </mxCell>
        <mxCell id="9rWktrnE6TO9M0ugiFey-4" value="7" style="text;html=1;align=center;verticalAlign=middle;whiteSpace=wrap;rounded=0;" vertex="1" parent="IJjqmRPqJ1MEidAl5n88-1">
          <mxGeometry x="450" y="20" width="90" height="40" as="geometry" />
        </mxCell>
        <mxCell id="9rWktrnE6TO9M0ugiFey-5" value="" style="rounded=1;whiteSpace=wrap;html=1;" vertex="1" parent="IJjqmRPqJ1MEidAl5n88-1">
          <mxGeometry x="770" y="230" width="70" height="40" as="geometry" />
        </mxCell>
        <mxCell id="9rWktrnE6TO9M0ugiFey-6" value="&lt;font style=&quot;font-size: 16px;&quot;&gt;Copy&lt;/font&gt;" style="text;html=1;align=center;verticalAlign=middle;whiteSpace=wrap;rounded=0;" vertex="1" parent="IJjqmRPqJ1MEidAl5n88-1">
          <mxGeometry x="770" y="230" width="70" height="40" as="geometry" />
        </mxCell>
        <mxCell id="9rWktrnE6TO9M0ugiFey-7" value="" style="endArrow=classic;html=1;rounded=0;exitX=0;exitY=0.5;exitDx=0;exitDy=0;" edge="1" parent="IJjqmRPqJ1MEidAl5n88-1" source="9rWktrnE6TO9M0ugiFey-6">
          <mxGeometry width="50" height="50" relative="1" as="geometry">
            <mxPoint x="420" y="300" as="sourcePoint" />
            <mxPoint x="700" y="250" as="targetPoint" />
          </mxGeometry>
        </mxCell>
        <mxCell id="9rWktrnE6TO9M0ugiFey-8" value="" style="rounded=0;whiteSpace=wrap;html=1;" vertex="1" parent="IJjqmRPqJ1MEidAl5n88-1">
          <mxGeometry x="50" y="390" width="320" height="140" as="geometry" />
        </mxCell>
        <mxCell id="9rWktrnE6TO9M0ugiFey-9" value="&lt;div style=&quot;font-size: 18px;&quot;&gt;&lt;font style=&quot;font-size: 18px;&quot;&gt;A: Inicio -&amp;gt; &lt;/font&gt;32 -&amp;gt; 43 -&amp;gt; 64 -&amp;gt; 85&lt;/div&gt;&lt;div style=&quot;font-size: 18px;&quot;&gt;&lt;font style=&quot;font-size: 18px;&quot;&gt;&lt;br&gt;&lt;/font&gt;&lt;/div&gt;&lt;div style=&quot;font-size: 18px;&quot;&gt;&lt;font style=&quot;font-size: 18px;&quot;&gt;&lt;font style=&quot;font-size: 18px;&quot;&gt;B: Inicio -&amp;gt; 7 -&amp;gt; 32&lt;/font&gt;&lt;font style=&quot;font-size: 18px;&quot;&gt;&lt;br&gt;&lt;/font&gt;&lt;/font&gt;&lt;/div&gt;" style="text;html=1;align=center;verticalAlign=middle;whiteSpace=wrap;rounded=0;" vertex="1" parent="IJjqmRPqJ1MEidAl5n88-1">
          <mxGeometry x="50" y="390" width="320" height="140" as="geometry" />
        </mxCell>
        <mxCell id="9rWktrnE6TO9M0ugiFey-10" value="&lt;div style=&quot;font-size: 15px;&quot;&gt;FilaAux: Inicio -&amp;gt; &lt;br style=&quot;font-size: 15px;&quot;&gt;&lt;/div&gt;&lt;div style=&quot;font-size: 15px;&quot;&gt;&lt;br style=&quot;font-size: 15px;&quot;&gt;&lt;/div&gt;&lt;div style=&quot;font-size: 15px;&quot;&gt;FilaResult: Inicio -&amp;gt; 10&lt;br style=&quot;font-size: 15px;&quot;&gt;&lt;/div&gt;" style="text;html=1;align=center;verticalAlign=middle;whiteSpace=wrap;rounded=0;fontSize=15;" vertex="1" parent="IJjqmRPqJ1MEidAl5n88-1">
          <mxGeometry x="10" y="550" width="280" height="60" as="geometry" />
        </mxCell>
        <mxCell id="9rWktrnE6TO9M0ugiFey-11" value="" style="rounded=0;whiteSpace=wrap;html=1;" vertex="1" parent="IJjqmRPqJ1MEidAl5n88-1">
          <mxGeometry x="50" y="330" width="90" height="40" as="geometry" />
        </mxCell>
        <mxCell id="9rWktrnE6TO9M0ugiFey-12" value="8" style="text;html=1;align=center;verticalAlign=middle;whiteSpace=wrap;rounded=0;" vertex="1" parent="IJjqmRPqJ1MEidAl5n88-1">
          <mxGeometry x="50" y="330" width="90" height="40" as="geometry" />
        </mxCell>
        <mxCell id="9rWktrnE6TO9M0ugiFey-13" value="" style="rounded=0;whiteSpace=wrap;html=1;" vertex="1" parent="IJjqmRPqJ1MEidAl5n88-1">
          <mxGeometry x="465" y="390" width="320" height="140" as="geometry" />
        </mxCell>
        <mxCell id="9rWktrnE6TO9M0ugiFey-14" value="&lt;div style=&quot;font-size: 18px;&quot;&gt;&lt;font style=&quot;font-size: 18px;&quot;&gt;A: Inicio &lt;/font&gt;-&amp;gt; 43 -&amp;gt; 64 -&amp;gt; 85&lt;/div&gt;&lt;div style=&quot;font-size: 18px;&quot;&gt;&lt;font style=&quot;font-size: 18px;&quot;&gt;&lt;br&gt;&lt;/font&gt;&lt;/div&gt;&lt;div style=&quot;font-size: 18px;&quot;&gt;&lt;font style=&quot;font-size: 18px;&quot;&gt;&lt;font style=&quot;font-size: 18px;&quot;&gt;B: Inicio -&amp;gt; 7 -&amp;gt; 32&lt;/font&gt;&lt;font style=&quot;font-size: 18px;&quot;&gt;&lt;br&gt;&lt;/font&gt;&lt;/font&gt;&lt;/div&gt;" style="text;html=1;align=center;verticalAlign=middle;whiteSpace=wrap;rounded=0;" vertex="1" parent="IJjqmRPqJ1MEidAl5n88-1">
          <mxGeometry x="465" y="390" width="320" height="140" as="geometry" />
        </mxCell>
        <mxCell id="9rWktrnE6TO9M0ugiFey-15" value="&lt;div style=&quot;font-size: 15px;&quot;&gt;FilaAux: Inicio -&amp;gt; 32&lt;br style=&quot;font-size: 15px;&quot;&gt;&lt;/div&gt;&lt;div style=&quot;font-size: 15px;&quot;&gt;&lt;br style=&quot;font-size: 15px;&quot;&gt;&lt;/div&gt;&lt;div style=&quot;font-size: 15px;&quot;&gt;FilaResult: Inicio -&amp;gt; 10&lt;br style=&quot;font-size: 15px;&quot;&gt;&lt;/div&gt;" style="text;html=1;align=center;verticalAlign=middle;whiteSpace=wrap;rounded=0;fontSize=15;" vertex="1" parent="IJjqmRPqJ1MEidAl5n88-1">
          <mxGeometry x="425" y="550" width="280" height="60" as="geometry" />
        </mxCell>
        <mxCell id="9rWktrnE6TO9M0ugiFey-16" value="" style="rounded=0;whiteSpace=wrap;html=1;" vertex="1" parent="IJjqmRPqJ1MEidAl5n88-1">
          <mxGeometry x="465" y="330" width="90" height="40" as="geometry" />
        </mxCell>
        <mxCell id="9rWktrnE6TO9M0ugiFey-17" value="9" style="text;html=1;align=center;verticalAlign=middle;whiteSpace=wrap;rounded=0;" vertex="1" parent="IJjqmRPqJ1MEidAl5n88-1">
          <mxGeometry x="465" y="330" width="90" height="40" as="geometry" />
        </mxCell>
        <mxCell id="9rWktrnE6TO9M0ugiFey-18" value="" style="rounded=0;whiteSpace=wrap;html=1;" vertex="1" parent="IJjqmRPqJ1MEidAl5n88-1">
          <mxGeometry x="50" y="720" width="320" height="140" as="geometry" />
        </mxCell>
        <mxCell id="9rWktrnE6TO9M0ugiFey-19" value="&lt;div style=&quot;font-size: 18px;&quot;&gt;&lt;font style=&quot;font-size: 18px;&quot;&gt;A: Inicio &lt;/font&gt;-&amp;gt; 64 -&amp;gt; 85&lt;/div&gt;&lt;div style=&quot;font-size: 18px;&quot;&gt;&lt;font style=&quot;font-size: 18px;&quot;&gt;&lt;br&gt;&lt;/font&gt;&lt;/div&gt;&lt;div style=&quot;font-size: 18px;&quot;&gt;&lt;font style=&quot;font-size: 18px;&quot;&gt;&lt;font style=&quot;font-size: 18px;&quot;&gt;B: Inicio -&amp;gt; 7 -&amp;gt; 32&lt;/font&gt;&lt;font style=&quot;font-size: 18px;&quot;&gt;&lt;br&gt;&lt;/font&gt;&lt;/font&gt;&lt;/div&gt;" style="text;html=1;align=center;verticalAlign=middle;whiteSpace=wrap;rounded=0;" vertex="1" parent="IJjqmRPqJ1MEidAl5n88-1">
          <mxGeometry x="50" y="720" width="320" height="140" as="geometry" />
        </mxCell>
        <mxCell id="9rWktrnE6TO9M0ugiFey-20" value="&lt;div style=&quot;font-size: 15px;&quot;&gt;FilaAux: Inicio -&amp;gt; 32 -&amp;gt; 43&lt;br style=&quot;font-size: 15px;&quot;&gt;&lt;/div&gt;&lt;div style=&quot;font-size: 15px;&quot;&gt;&lt;br style=&quot;font-size: 15px;&quot;&gt;&lt;/div&gt;&lt;div style=&quot;font-size: 15px;&quot;&gt;FilaResult: Inicio -&amp;gt; 10&lt;br style=&quot;font-size: 15px;&quot;&gt;&lt;/div&gt;" style="text;html=1;align=center;verticalAlign=middle;whiteSpace=wrap;rounded=0;fontSize=15;" vertex="1" parent="IJjqmRPqJ1MEidAl5n88-1">
          <mxGeometry x="10" y="880" width="280" height="60" as="geometry" />
        </mxCell>
        <mxCell id="9rWktrnE6TO9M0ugiFey-21" value="" style="rounded=0;whiteSpace=wrap;html=1;" vertex="1" parent="IJjqmRPqJ1MEidAl5n88-1">
          <mxGeometry x="50" y="660" width="90" height="40" as="geometry" />
        </mxCell>
        <mxCell id="9rWktrnE6TO9M0ugiFey-22" value="10" style="text;html=1;align=center;verticalAlign=middle;whiteSpace=wrap;rounded=0;" vertex="1" parent="IJjqmRPqJ1MEidAl5n88-1">
          <mxGeometry x="50" y="660" width="90" height="40" as="geometry" />
        </mxCell>
        <mxCell id="9rWktrnE6TO9M0ugiFey-23" value="" style="rounded=0;whiteSpace=wrap;html=1;" vertex="1" parent="IJjqmRPqJ1MEidAl5n88-1">
          <mxGeometry x="450" y="720" width="320" height="140" as="geometry" />
        </mxCell>
        <mxCell id="9rWktrnE6TO9M0ugiFey-24" value="&lt;div style=&quot;font-size: 18px;&quot;&gt;&lt;font style=&quot;font-size: 18px;&quot;&gt;A: Inicio &lt;/font&gt;-&amp;gt; 85&lt;/div&gt;&lt;div style=&quot;font-size: 18px;&quot;&gt;&lt;font style=&quot;font-size: 18px;&quot;&gt;&lt;br&gt;&lt;/font&gt;&lt;/div&gt;&lt;div style=&quot;font-size: 18px;&quot;&gt;&lt;font style=&quot;font-size: 18px;&quot;&gt;&lt;font style=&quot;font-size: 18px;&quot;&gt;B: Inicio -&amp;gt; 7 -&amp;gt; 32&lt;/font&gt;&lt;font style=&quot;font-size: 18px;&quot;&gt;&lt;br&gt;&lt;/font&gt;&lt;/font&gt;&lt;/div&gt;" style="text;html=1;align=center;verticalAlign=middle;whiteSpace=wrap;rounded=0;" vertex="1" parent="IJjqmRPqJ1MEidAl5n88-1">
          <mxGeometry x="450" y="720" width="320" height="140" as="geometry" />
        </mxCell>
        <mxCell id="9rWktrnE6TO9M0ugiFey-25" value="&lt;div style=&quot;font-size: 15px;&quot;&gt;FilaAux: Inicio -&amp;gt; 32 -&amp;gt; 43 -&amp;gt; 64&lt;br style=&quot;font-size: 15px;&quot;&gt;&lt;/div&gt;&lt;div style=&quot;font-size: 15px;&quot;&gt;&lt;br style=&quot;font-size: 15px;&quot;&gt;&lt;/div&gt;&lt;div style=&quot;font-size: 15px;&quot;&gt;FilaResult: Inicio -&amp;gt; 10&lt;br style=&quot;font-size: 15px;&quot;&gt;&lt;/div&gt;" style="text;html=1;align=center;verticalAlign=middle;whiteSpace=wrap;rounded=0;fontSize=15;" vertex="1" parent="IJjqmRPqJ1MEidAl5n88-1">
          <mxGeometry x="410" y="880" width="280" height="60" as="geometry" />
        </mxCell>
        <mxCell id="9rWktrnE6TO9M0ugiFey-26" value="" style="rounded=0;whiteSpace=wrap;html=1;" vertex="1" parent="IJjqmRPqJ1MEidAl5n88-1">
          <mxGeometry x="450" y="660" width="90" height="40" as="geometry" />
        </mxCell>
        <mxCell id="9rWktrnE6TO9M0ugiFey-27" value="11" style="text;html=1;align=center;verticalAlign=middle;whiteSpace=wrap;rounded=0;" vertex="1" parent="IJjqmRPqJ1MEidAl5n88-1">
          <mxGeometry x="450" y="660" width="90" height="40" as="geometry" />
        </mxCell>
      </root>
    </mxGraphModel>
  </diagram>
  <diagram name="Page-3" id="DXZQP1pVr_mh8cYFj3om">
    <mxGraphModel dx="1434" dy="750" grid="1" gridSize="10" guides="1" tooltips="1" connect="1" arrows="1" fold="1" page="1" pageScale="1" pageWidth="850" pageHeight="1100" math="0" shadow="0">
      <root>
        <mxCell id="HriDVlKTwnP9Hahq-CoX-0" />
        <mxCell id="HriDVlKTwnP9Hahq-CoX-1" parent="HriDVlKTwnP9Hahq-CoX-0" />
        <mxCell id="ouPmVKqG5ONRr7UBSuLG-0" value="" style="rounded=0;whiteSpace=wrap;html=1;" vertex="1" parent="HriDVlKTwnP9Hahq-CoX-1">
          <mxGeometry x="50" y="80" width="320" height="140" as="geometry" />
        </mxCell>
        <mxCell id="ouPmVKqG5ONRr7UBSuLG-1" value="&lt;div style=&quot;font-size: 18px;&quot;&gt;&lt;font style=&quot;font-size: 18px;&quot;&gt;A: Inicio &lt;/font&gt;-&amp;gt; &lt;br&gt;&lt;/div&gt;&lt;div style=&quot;font-size: 18px;&quot;&gt;&lt;font style=&quot;font-size: 18px;&quot;&gt;&lt;br&gt;&lt;/font&gt;&lt;/div&gt;&lt;div style=&quot;font-size: 18px;&quot;&gt;&lt;font style=&quot;font-size: 18px;&quot;&gt;&lt;font style=&quot;font-size: 18px;&quot;&gt;B: Inicio -&amp;gt; 7 -&amp;gt; 32&lt;/font&gt;&lt;font style=&quot;font-size: 18px;&quot;&gt;&lt;br&gt;&lt;/font&gt;&lt;/font&gt;&lt;/div&gt;" style="text;html=1;align=center;verticalAlign=middle;whiteSpace=wrap;rounded=0;" vertex="1" parent="HriDVlKTwnP9Hahq-CoX-1">
          <mxGeometry x="50" y="80" width="320" height="140" as="geometry" />
        </mxCell>
        <mxCell id="ouPmVKqG5ONRr7UBSuLG-2" value="&lt;div style=&quot;font-size: 15px;&quot;&gt;FilaAux: Inicio -&amp;gt; 32 -&amp;gt; 43 -&amp;gt; 64 -&amp;gt; 85&lt;br style=&quot;font-size: 15px;&quot;&gt;&lt;/div&gt;&lt;div style=&quot;font-size: 15px;&quot;&gt;&lt;br style=&quot;font-size: 15px;&quot;&gt;&lt;/div&gt;&lt;div style=&quot;font-size: 15px;&quot;&gt;FilaResult: Inicio -&amp;gt; 10&lt;br style=&quot;font-size: 15px;&quot;&gt;&lt;/div&gt;" style="text;html=1;align=center;verticalAlign=middle;whiteSpace=wrap;rounded=0;fontSize=15;" vertex="1" parent="HriDVlKTwnP9Hahq-CoX-1">
          <mxGeometry x="10" y="240" width="280" height="60" as="geometry" />
        </mxCell>
        <mxCell id="ouPmVKqG5ONRr7UBSuLG-3" value="" style="rounded=0;whiteSpace=wrap;html=1;" vertex="1" parent="HriDVlKTwnP9Hahq-CoX-1">
          <mxGeometry x="50" y="20" width="90" height="40" as="geometry" />
        </mxCell>
        <mxCell id="ouPmVKqG5ONRr7UBSuLG-4" value="12" style="text;html=1;align=center;verticalAlign=middle;whiteSpace=wrap;rounded=0;" vertex="1" parent="HriDVlKTwnP9Hahq-CoX-1">
          <mxGeometry x="50" y="20" width="90" height="40" as="geometry" />
        </mxCell>
        <mxCell id="28KV-CDAEPQ6LhCfVKQ_-0" value="" style="rounded=0;whiteSpace=wrap;html=1;" vertex="1" parent="HriDVlKTwnP9Hahq-CoX-1">
          <mxGeometry x="465" y="80" width="320" height="140" as="geometry" />
        </mxCell>
        <mxCell id="28KV-CDAEPQ6LhCfVKQ_-1" value="&lt;div style=&quot;font-size: 18px;&quot;&gt;&lt;font style=&quot;font-size: 18px;&quot;&gt;A: Inicio &lt;/font&gt;-&amp;gt; &lt;br&gt;&lt;/div&gt;&lt;div style=&quot;font-size: 18px;&quot;&gt;&lt;font style=&quot;font-size: 18px;&quot;&gt;&lt;br&gt;&lt;/font&gt;&lt;/div&gt;&lt;div style=&quot;font-size: 18px;&quot;&gt;&lt;font style=&quot;font-size: 18px;&quot;&gt;&lt;font style=&quot;font-size: 18px;&quot;&gt;B: Inicio -&amp;gt; 32&lt;/font&gt;&lt;font style=&quot;font-size: 18px;&quot;&gt;&lt;br&gt;&lt;/font&gt;&lt;/font&gt;&lt;/div&gt;" style="text;html=1;align=center;verticalAlign=middle;whiteSpace=wrap;rounded=0;" vertex="1" parent="HriDVlKTwnP9Hahq-CoX-1">
          <mxGeometry x="465" y="80" width="320" height="140" as="geometry" />
        </mxCell>
        <mxCell id="28KV-CDAEPQ6LhCfVKQ_-2" value="&lt;div style=&quot;font-size: 15px;&quot;&gt;FilaAux: Inicio -&amp;gt; 32 -&amp;gt; 43 -&amp;gt; 64 -&amp;gt; 85&lt;br style=&quot;font-size: 15px;&quot;&gt;&lt;/div&gt;&lt;div style=&quot;font-size: 15px;&quot;&gt;&lt;br style=&quot;font-size: 15px;&quot;&gt;&lt;/div&gt;&lt;div style=&quot;font-size: 15px;&quot;&gt;FilaResult: Inicio -&amp;gt; 10&lt;br style=&quot;font-size: 15px;&quot;&gt;&lt;/div&gt;" style="text;html=1;align=center;verticalAlign=middle;whiteSpace=wrap;rounded=0;fontSize=15;" vertex="1" parent="HriDVlKTwnP9Hahq-CoX-1">
          <mxGeometry x="425" y="240" width="280" height="60" as="geometry" />
        </mxCell>
        <mxCell id="28KV-CDAEPQ6LhCfVKQ_-3" value="" style="rounded=0;whiteSpace=wrap;html=1;" vertex="1" parent="HriDVlKTwnP9Hahq-CoX-1">
          <mxGeometry x="465" y="20" width="90" height="40" as="geometry" />
        </mxCell>
        <mxCell id="28KV-CDAEPQ6LhCfVKQ_-4" value="13" style="text;html=1;align=center;verticalAlign=middle;whiteSpace=wrap;rounded=0;" vertex="1" parent="HriDVlKTwnP9Hahq-CoX-1">
          <mxGeometry x="465" y="20" width="90" height="40" as="geometry" />
        </mxCell>
        <mxCell id="28KV-CDAEPQ6LhCfVKQ_-5" value="" style="rounded=0;whiteSpace=wrap;html=1;" vertex="1" parent="HriDVlKTwnP9Hahq-CoX-1">
          <mxGeometry x="50" y="410" width="320" height="140" as="geometry" />
        </mxCell>
        <mxCell id="28KV-CDAEPQ6LhCfVKQ_-6" value="&lt;div style=&quot;font-size: 18px;&quot;&gt;&lt;font style=&quot;font-size: 18px;&quot;&gt;A: Inicio &lt;/font&gt;-&amp;gt; &lt;br&gt;&lt;/div&gt;&lt;div style=&quot;font-size: 18px;&quot;&gt;&lt;font style=&quot;font-size: 18px;&quot;&gt;&lt;br&gt;&lt;/font&gt;&lt;/div&gt;&lt;div style=&quot;font-size: 18px;&quot;&gt;&lt;font style=&quot;font-size: 18px;&quot;&gt;&lt;font style=&quot;font-size: 18px;&quot;&gt;B: Inicio -&amp;gt; 32&lt;/font&gt;&lt;font style=&quot;font-size: 18px;&quot;&gt;&lt;br&gt;&lt;/font&gt;&lt;/font&gt;&lt;/div&gt;" style="text;html=1;align=center;verticalAlign=middle;whiteSpace=wrap;rounded=0;" vertex="1" parent="HriDVlKTwnP9Hahq-CoX-1">
          <mxGeometry x="50" y="410" width="320" height="140" as="geometry" />
        </mxCell>
        <mxCell id="28KV-CDAEPQ6LhCfVKQ_-7" value="&lt;div style=&quot;font-size: 15px;&quot;&gt;FilaAux: Inicio -&amp;gt; 32 -&amp;gt; 43 -&amp;gt; 64 -&amp;gt; 85&lt;br style=&quot;font-size: 15px;&quot;&gt;&lt;/div&gt;&lt;div style=&quot;font-size: 15px;&quot;&gt;&lt;br style=&quot;font-size: 15px;&quot;&gt;&lt;/div&gt;&lt;div style=&quot;font-size: 15px;&quot;&gt;FilaResult: Inicio -&amp;gt; 10&lt;br style=&quot;font-size: 15px;&quot;&gt;&lt;/div&gt;" style="text;html=1;align=center;verticalAlign=middle;whiteSpace=wrap;rounded=0;fontSize=15;" vertex="1" parent="HriDVlKTwnP9Hahq-CoX-1">
          <mxGeometry x="10" y="570" width="280" height="60" as="geometry" />
        </mxCell>
        <mxCell id="28KV-CDAEPQ6LhCfVKQ_-8" value="" style="rounded=0;whiteSpace=wrap;html=1;" vertex="1" parent="HriDVlKTwnP9Hahq-CoX-1">
          <mxGeometry x="50" y="350" width="90" height="40" as="geometry" />
        </mxCell>
        <mxCell id="28KV-CDAEPQ6LhCfVKQ_-9" value="14" style="text;html=1;align=center;verticalAlign=middle;whiteSpace=wrap;rounded=0;" vertex="1" parent="HriDVlKTwnP9Hahq-CoX-1">
          <mxGeometry x="50" y="350" width="90" height="40" as="geometry" />
        </mxCell>
        <mxCell id="_7XXLgPcYpVdVNhvDaOb-0" value="" style="rounded=1;whiteSpace=wrap;html=1;" vertex="1" parent="HriDVlKTwnP9Hahq-CoX-1">
          <mxGeometry x="360" y="560" width="70" height="40" as="geometry" />
        </mxCell>
        <mxCell id="_7XXLgPcYpVdVNhvDaOb-1" value="&lt;font style=&quot;font-size: 16px;&quot;&gt;Copy&lt;/font&gt;" style="text;html=1;align=center;verticalAlign=middle;whiteSpace=wrap;rounded=0;" vertex="1" parent="HriDVlKTwnP9Hahq-CoX-1">
          <mxGeometry x="360" y="560" width="70" height="40" as="geometry" />
        </mxCell>
        <mxCell id="_7XXLgPcYpVdVNhvDaOb-2" value="" style="endArrow=classic;html=1;rounded=0;exitX=0;exitY=0.5;exitDx=0;exitDy=0;" edge="1" source="_7XXLgPcYpVdVNhvDaOb-1" parent="HriDVlKTwnP9Hahq-CoX-1">
          <mxGeometry width="50" height="50" relative="1" as="geometry">
            <mxPoint x="10" y="630" as="sourcePoint" />
            <mxPoint x="290" y="580" as="targetPoint" />
          </mxGeometry>
        </mxCell>
        <mxCell id="_7XXLgPcYpVdVNhvDaOb-3" value="" style="rounded=0;whiteSpace=wrap;html=1;" vertex="1" parent="HriDVlKTwnP9Hahq-CoX-1">
          <mxGeometry x="500" y="410" width="320" height="140" as="geometry" />
        </mxCell>
        <mxCell id="_7XXLgPcYpVdVNhvDaOb-4" value="&lt;div style=&quot;font-size: 18px;&quot;&gt;&lt;font style=&quot;font-size: 18px;&quot;&gt;A: Inicio &lt;/font&gt;-&amp;gt;&amp;nbsp;32 -&amp;gt; 43 -&amp;gt; 64 -&amp;gt; 85 &lt;/div&gt;&lt;div style=&quot;font-size: 18px;&quot;&gt;&lt;font style=&quot;font-size: 18px;&quot;&gt;&lt;br&gt;&lt;/font&gt;&lt;/div&gt;&lt;div style=&quot;font-size: 18px;&quot;&gt;&lt;font style=&quot;font-size: 18px;&quot;&gt;&lt;font style=&quot;font-size: 18px;&quot;&gt;B: Inicio -&amp;gt; 32&lt;/font&gt;&lt;font style=&quot;font-size: 18px;&quot;&gt;&lt;br&gt;&lt;/font&gt;&lt;/font&gt;&lt;/div&gt;" style="text;html=1;align=center;verticalAlign=middle;whiteSpace=wrap;rounded=0;" vertex="1" parent="HriDVlKTwnP9Hahq-CoX-1">
          <mxGeometry x="500" y="410" width="320" height="140" as="geometry" />
        </mxCell>
        <mxCell id="_7XXLgPcYpVdVNhvDaOb-5" value="&lt;div style=&quot;font-size: 15px;&quot;&gt;FilaAux: Inicio -&amp;gt; &lt;br style=&quot;font-size: 15px;&quot;&gt;&lt;/div&gt;&lt;div style=&quot;font-size: 15px;&quot;&gt;&lt;br style=&quot;font-size: 15px;&quot;&gt;&lt;/div&gt;&lt;div style=&quot;font-size: 15px;&quot;&gt;FilaResult: Inicio -&amp;gt; 10&lt;br style=&quot;font-size: 15px;&quot;&gt;&lt;/div&gt;" style="text;html=1;align=center;verticalAlign=middle;whiteSpace=wrap;rounded=0;fontSize=15;" vertex="1" parent="HriDVlKTwnP9Hahq-CoX-1">
          <mxGeometry x="460" y="570" width="280" height="60" as="geometry" />
        </mxCell>
        <mxCell id="_7XXLgPcYpVdVNhvDaOb-6" value="" style="rounded=0;whiteSpace=wrap;html=1;" vertex="1" parent="HriDVlKTwnP9Hahq-CoX-1">
          <mxGeometry x="500" y="350" width="90" height="40" as="geometry" />
        </mxCell>
        <mxCell id="_7XXLgPcYpVdVNhvDaOb-7" value="15" style="text;html=1;align=center;verticalAlign=middle;whiteSpace=wrap;rounded=0;" vertex="1" parent="HriDVlKTwnP9Hahq-CoX-1">
          <mxGeometry x="500" y="350" width="90" height="40" as="geometry" />
        </mxCell>
        <mxCell id="_7XXLgPcYpVdVNhvDaOb-8" value="" style="rounded=0;whiteSpace=wrap;html=1;" vertex="1" parent="HriDVlKTwnP9Hahq-CoX-1">
          <mxGeometry x="50" y="740" width="320" height="140" as="geometry" />
        </mxCell>
        <mxCell id="_7XXLgPcYpVdVNhvDaOb-9" value="&lt;div style=&quot;font-size: 18px;&quot;&gt;&lt;font style=&quot;font-size: 18px;&quot;&gt;A: Inicio &lt;/font&gt;-&amp;gt; 43 -&amp;gt; 64 -&amp;gt; 85 &lt;/div&gt;&lt;div style=&quot;font-size: 18px;&quot;&gt;&lt;font style=&quot;font-size: 18px;&quot;&gt;&lt;br&gt;&lt;/font&gt;&lt;/div&gt;&lt;div style=&quot;font-size: 18px;&quot;&gt;&lt;font style=&quot;font-size: 18px;&quot;&gt;&lt;font style=&quot;font-size: 18px;&quot;&gt;B: Inicio -&amp;gt; 32&lt;/font&gt;&lt;font style=&quot;font-size: 18px;&quot;&gt;&lt;br&gt;&lt;/font&gt;&lt;/font&gt;&lt;/div&gt;" style="text;html=1;align=center;verticalAlign=middle;whiteSpace=wrap;rounded=0;" vertex="1" parent="HriDVlKTwnP9Hahq-CoX-1">
          <mxGeometry x="50" y="740" width="320" height="140" as="geometry" />
        </mxCell>
        <mxCell id="_7XXLgPcYpVdVNhvDaOb-10" value="&lt;div style=&quot;font-size: 15px;&quot;&gt;FilaAux: Inicio -&amp;gt; &lt;br style=&quot;font-size: 15px;&quot;&gt;&lt;/div&gt;&lt;div style=&quot;font-size: 15px;&quot;&gt;&lt;br style=&quot;font-size: 15px;&quot;&gt;&lt;/div&gt;&lt;div style=&quot;font-size: 15px;&quot;&gt;FilaResult: Inicio -&amp;gt; 10 -&amp;gt; 32&lt;br style=&quot;font-size: 15px;&quot;&gt;&lt;/div&gt;" style="text;html=1;align=center;verticalAlign=middle;whiteSpace=wrap;rounded=0;fontSize=15;" vertex="1" parent="HriDVlKTwnP9Hahq-CoX-1">
          <mxGeometry x="10" y="900" width="280" height="60" as="geometry" />
        </mxCell>
        <mxCell id="_7XXLgPcYpVdVNhvDaOb-11" value="" style="rounded=0;whiteSpace=wrap;html=1;" vertex="1" parent="HriDVlKTwnP9Hahq-CoX-1">
          <mxGeometry x="50" y="680" width="90" height="40" as="geometry" />
        </mxCell>
        <mxCell id="_7XXLgPcYpVdVNhvDaOb-12" value="16" style="text;html=1;align=center;verticalAlign=middle;whiteSpace=wrap;rounded=0;" vertex="1" parent="HriDVlKTwnP9Hahq-CoX-1">
          <mxGeometry x="50" y="680" width="90" height="40" as="geometry" />
        </mxCell>
        <mxCell id="_7XXLgPcYpVdVNhvDaOb-13" value="" style="rounded=0;whiteSpace=wrap;html=1;" vertex="1" parent="HriDVlKTwnP9Hahq-CoX-1">
          <mxGeometry x="490" y="740" width="320" height="140" as="geometry" />
        </mxCell>
        <mxCell id="_7XXLgPcYpVdVNhvDaOb-14" value="&lt;div style=&quot;font-size: 18px;&quot;&gt;&lt;font style=&quot;font-size: 18px;&quot;&gt;A: Inicio &lt;/font&gt;-&amp;gt; 64 -&amp;gt; 85 &lt;/div&gt;&lt;div style=&quot;font-size: 18px;&quot;&gt;&lt;font style=&quot;font-size: 18px;&quot;&gt;&lt;br&gt;&lt;/font&gt;&lt;/div&gt;&lt;div style=&quot;font-size: 18px;&quot;&gt;&lt;font style=&quot;font-size: 18px;&quot;&gt;&lt;font style=&quot;font-size: 18px;&quot;&gt;B: Inicio -&amp;gt; 32&lt;/font&gt;&lt;font style=&quot;font-size: 18px;&quot;&gt;&lt;br&gt;&lt;/font&gt;&lt;/font&gt;&lt;/div&gt;" style="text;html=1;align=center;verticalAlign=middle;whiteSpace=wrap;rounded=0;" vertex="1" parent="HriDVlKTwnP9Hahq-CoX-1">
          <mxGeometry x="490" y="740" width="320" height="140" as="geometry" />
        </mxCell>
        <mxCell id="_7XXLgPcYpVdVNhvDaOb-15" value="&lt;div style=&quot;font-size: 15px;&quot;&gt;FilaAux: Inicio -&amp;gt; 43&lt;br style=&quot;font-size: 15px;&quot;&gt;&lt;/div&gt;&lt;div style=&quot;font-size: 15px;&quot;&gt;&lt;br style=&quot;font-size: 15px;&quot;&gt;&lt;/div&gt;&lt;div style=&quot;font-size: 15px;&quot;&gt;FilaResult: Inicio -&amp;gt; 10 -&amp;gt; 32&lt;br style=&quot;font-size: 15px;&quot;&gt;&lt;/div&gt;" style="text;html=1;align=center;verticalAlign=middle;whiteSpace=wrap;rounded=0;fontSize=15;" vertex="1" parent="HriDVlKTwnP9Hahq-CoX-1">
          <mxGeometry x="450" y="900" width="280" height="60" as="geometry" />
        </mxCell>
        <mxCell id="_7XXLgPcYpVdVNhvDaOb-16" value="" style="rounded=0;whiteSpace=wrap;html=1;" vertex="1" parent="HriDVlKTwnP9Hahq-CoX-1">
          <mxGeometry x="490" y="680" width="90" height="40" as="geometry" />
        </mxCell>
        <mxCell id="_7XXLgPcYpVdVNhvDaOb-17" value="&lt;div&gt;17&lt;/div&gt;" style="text;html=1;align=center;verticalAlign=middle;whiteSpace=wrap;rounded=0;" vertex="1" parent="HriDVlKTwnP9Hahq-CoX-1">
          <mxGeometry x="490" y="680" width="90" height="40" as="geometry" />
        </mxCell>
      </root>
    </mxGraphModel>
  </diagram>
  <diagram name="Page-4" id="mBsxDiOSPf2KxFdFzkzp">
    <mxGraphModel dx="1434" dy="750" grid="1" gridSize="10" guides="1" tooltips="1" connect="1" arrows="1" fold="1" page="1" pageScale="1" pageWidth="850" pageHeight="1100" math="0" shadow="0">
      <root>
        <mxCell id="TRMaIz-ZIz2-oLeZeGUC-0" />
        <mxCell id="TRMaIz-ZIz2-oLeZeGUC-1" parent="TRMaIz-ZIz2-oLeZeGUC-0" />
        <mxCell id="UqZgty4LVOvfOpkW-D8d-0" value="" style="rounded=0;whiteSpace=wrap;html=1;" vertex="1" parent="TRMaIz-ZIz2-oLeZeGUC-1">
          <mxGeometry x="50" y="80" width="320" height="140" as="geometry" />
        </mxCell>
        <mxCell id="UqZgty4LVOvfOpkW-D8d-1" value="&lt;div style=&quot;font-size: 18px;&quot;&gt;&lt;font style=&quot;font-size: 18px;&quot;&gt;A: Inicio &lt;/font&gt;-&amp;gt; 85 &lt;/div&gt;&lt;div style=&quot;font-size: 18px;&quot;&gt;&lt;font style=&quot;font-size: 18px;&quot;&gt;&lt;br&gt;&lt;/font&gt;&lt;/div&gt;&lt;div style=&quot;font-size: 18px;&quot;&gt;&lt;font style=&quot;font-size: 18px;&quot;&gt;&lt;font style=&quot;font-size: 18px;&quot;&gt;B: Inicio -&amp;gt; 32&lt;/font&gt;&lt;font style=&quot;font-size: 18px;&quot;&gt;&lt;br&gt;&lt;/font&gt;&lt;/font&gt;&lt;/div&gt;" style="text;html=1;align=center;verticalAlign=middle;whiteSpace=wrap;rounded=0;" vertex="1" parent="TRMaIz-ZIz2-oLeZeGUC-1">
          <mxGeometry x="50" y="80" width="320" height="140" as="geometry" />
        </mxCell>
        <mxCell id="UqZgty4LVOvfOpkW-D8d-2" value="&lt;div style=&quot;font-size: 15px;&quot;&gt;FilaAux: Inicio -&amp;gt; 43 -&amp;gt; 64&lt;/div&gt;&lt;div style=&quot;font-size: 15px;&quot;&gt;&lt;br style=&quot;font-size: 15px;&quot;&gt;&lt;/div&gt;&lt;div style=&quot;font-size: 15px;&quot;&gt;FilaResult: Inicio -&amp;gt; 10 -&amp;gt; 32&lt;br style=&quot;font-size: 15px;&quot;&gt;&lt;/div&gt;" style="text;html=1;align=center;verticalAlign=middle;whiteSpace=wrap;rounded=0;fontSize=15;" vertex="1" parent="TRMaIz-ZIz2-oLeZeGUC-1">
          <mxGeometry x="10" y="240" width="280" height="60" as="geometry" />
        </mxCell>
        <mxCell id="UqZgty4LVOvfOpkW-D8d-3" value="" style="rounded=0;whiteSpace=wrap;html=1;" vertex="1" parent="TRMaIz-ZIz2-oLeZeGUC-1">
          <mxGeometry x="50" y="20" width="90" height="40" as="geometry" />
        </mxCell>
        <mxCell id="UqZgty4LVOvfOpkW-D8d-4" value="18" style="text;html=1;align=center;verticalAlign=middle;whiteSpace=wrap;rounded=0;" vertex="1" parent="TRMaIz-ZIz2-oLeZeGUC-1">
          <mxGeometry x="50" y="20" width="90" height="40" as="geometry" />
        </mxCell>
        <mxCell id="Gia3OzreHK13vsVEQtkB-0" value="" style="rounded=0;whiteSpace=wrap;html=1;" vertex="1" parent="TRMaIz-ZIz2-oLeZeGUC-1">
          <mxGeometry x="460" y="80" width="320" height="140" as="geometry" />
        </mxCell>
        <mxCell id="Gia3OzreHK13vsVEQtkB-1" value="&lt;div style=&quot;font-size: 18px;&quot;&gt;&lt;font style=&quot;font-size: 18px;&quot;&gt;A: Inicio &lt;/font&gt;-&amp;gt; &lt;/div&gt;&lt;div style=&quot;font-size: 18px;&quot;&gt;&lt;font style=&quot;font-size: 18px;&quot;&gt;&lt;br&gt;&lt;/font&gt;&lt;/div&gt;&lt;div style=&quot;font-size: 18px;&quot;&gt;&lt;font style=&quot;font-size: 18px;&quot;&gt;&lt;font style=&quot;font-size: 18px;&quot;&gt;B: Inicio -&amp;gt; 32&lt;/font&gt;&lt;font style=&quot;font-size: 18px;&quot;&gt;&lt;br&gt;&lt;/font&gt;&lt;/font&gt;&lt;/div&gt;" style="text;html=1;align=center;verticalAlign=middle;whiteSpace=wrap;rounded=0;" vertex="1" parent="TRMaIz-ZIz2-oLeZeGUC-1">
          <mxGeometry x="460" y="80" width="320" height="140" as="geometry" />
        </mxCell>
        <mxCell id="Gia3OzreHK13vsVEQtkB-2" value="&lt;div style=&quot;font-size: 15px;&quot;&gt;FilaAux: Inicio -&amp;gt; 43 -&amp;gt; 64 -&amp;gt; 85&lt;br&gt;&lt;/div&gt;&lt;div style=&quot;font-size: 15px;&quot;&gt;&lt;br style=&quot;font-size: 15px;&quot;&gt;&lt;/div&gt;&lt;div style=&quot;font-size: 15px;&quot;&gt;FilaResult: Inicio -&amp;gt; 10 -&amp;gt; 32&lt;br style=&quot;font-size: 15px;&quot;&gt;&lt;/div&gt;" style="text;html=1;align=center;verticalAlign=middle;whiteSpace=wrap;rounded=0;fontSize=15;" vertex="1" parent="TRMaIz-ZIz2-oLeZeGUC-1">
          <mxGeometry x="420" y="240" width="280" height="60" as="geometry" />
        </mxCell>
        <mxCell id="Gia3OzreHK13vsVEQtkB-3" value="" style="rounded=0;whiteSpace=wrap;html=1;" vertex="1" parent="TRMaIz-ZIz2-oLeZeGUC-1">
          <mxGeometry x="460" y="20" width="90" height="40" as="geometry" />
        </mxCell>
        <mxCell id="Gia3OzreHK13vsVEQtkB-4" value="19" style="text;html=1;align=center;verticalAlign=middle;whiteSpace=wrap;rounded=0;" vertex="1" parent="TRMaIz-ZIz2-oLeZeGUC-1">
          <mxGeometry x="460" y="20" width="90" height="40" as="geometry" />
        </mxCell>
        <mxCell id="Gia3OzreHK13vsVEQtkB-5" value="" style="rounded=0;whiteSpace=wrap;html=1;" vertex="1" parent="TRMaIz-ZIz2-oLeZeGUC-1">
          <mxGeometry x="50" y="400" width="320" height="140" as="geometry" />
        </mxCell>
        <mxCell id="Gia3OzreHK13vsVEQtkB-6" value="&lt;div style=&quot;font-size: 18px;&quot;&gt;&lt;font style=&quot;font-size: 18px;&quot;&gt;A: Inicio &lt;/font&gt;-&amp;gt; &lt;/div&gt;&lt;div style=&quot;font-size: 18px;&quot;&gt;&lt;font style=&quot;font-size: 18px;&quot;&gt;&lt;br&gt;&lt;/font&gt;&lt;/div&gt;&lt;div style=&quot;font-size: 18px;&quot;&gt;&lt;font style=&quot;font-size: 18px;&quot;&gt;&lt;font style=&quot;font-size: 18px;&quot;&gt;B: Inicio -&amp;gt; &lt;br&gt;&lt;/font&gt;&lt;/font&gt;&lt;/div&gt;" style="text;html=1;align=center;verticalAlign=middle;whiteSpace=wrap;rounded=0;" vertex="1" parent="TRMaIz-ZIz2-oLeZeGUC-1">
          <mxGeometry x="50" y="400" width="320" height="140" as="geometry" />
        </mxCell>
        <mxCell id="Gia3OzreHK13vsVEQtkB-7" value="&lt;div style=&quot;font-size: 15px;&quot;&gt;FilaAux: Inicio -&amp;gt; 43 -&amp;gt; 64 -&amp;gt; 85&lt;br&gt;&lt;/div&gt;&lt;div style=&quot;font-size: 15px;&quot;&gt;&lt;br style=&quot;font-size: 15px;&quot;&gt;&lt;/div&gt;&lt;div style=&quot;font-size: 15px;&quot;&gt;FilaResult: Inicio -&amp;gt; 10 -&amp;gt; 32&lt;br style=&quot;font-size: 15px;&quot;&gt;&lt;/div&gt;" style="text;html=1;align=center;verticalAlign=middle;whiteSpace=wrap;rounded=0;fontSize=15;" vertex="1" parent="TRMaIz-ZIz2-oLeZeGUC-1">
          <mxGeometry x="10" y="560" width="280" height="60" as="geometry" />
        </mxCell>
        <mxCell id="Gia3OzreHK13vsVEQtkB-8" value="" style="rounded=0;whiteSpace=wrap;html=1;" vertex="1" parent="TRMaIz-ZIz2-oLeZeGUC-1">
          <mxGeometry x="50" y="340" width="90" height="40" as="geometry" />
        </mxCell>
        <mxCell id="Gia3OzreHK13vsVEQtkB-9" value="20" style="text;html=1;align=center;verticalAlign=middle;whiteSpace=wrap;rounded=0;" vertex="1" parent="TRMaIz-ZIz2-oLeZeGUC-1">
          <mxGeometry x="50" y="340" width="90" height="40" as="geometry" />
        </mxCell>
        <mxCell id="8kv1chNitcfREkyRA5XA-5" value="" style="rounded=1;whiteSpace=wrap;html=1;" vertex="1" parent="TRMaIz-ZIz2-oLeZeGUC-1">
          <mxGeometry x="350" y="550" width="70" height="40" as="geometry" />
        </mxCell>
        <mxCell id="8kv1chNitcfREkyRA5XA-6" value="&lt;font style=&quot;font-size: 16px;&quot;&gt;Copy&lt;/font&gt;" style="text;html=1;align=center;verticalAlign=middle;whiteSpace=wrap;rounded=0;" vertex="1" parent="TRMaIz-ZIz2-oLeZeGUC-1">
          <mxGeometry x="350" y="550" width="70" height="40" as="geometry" />
        </mxCell>
        <mxCell id="8kv1chNitcfREkyRA5XA-7" value="" style="endArrow=classic;html=1;rounded=0;exitX=0;exitY=0.5;exitDx=0;exitDy=0;" edge="1" source="8kv1chNitcfREkyRA5XA-6" parent="TRMaIz-ZIz2-oLeZeGUC-1">
          <mxGeometry width="50" height="50" relative="1" as="geometry">
            <mxPoint y="620" as="sourcePoint" />
            <mxPoint x="280" y="570" as="targetPoint" />
          </mxGeometry>
        </mxCell>
        <mxCell id="8kv1chNitcfREkyRA5XA-8" value="" style="rounded=0;whiteSpace=wrap;html=1;" vertex="1" parent="TRMaIz-ZIz2-oLeZeGUC-1">
          <mxGeometry x="480" y="400" width="320" height="140" as="geometry" />
        </mxCell>
        <mxCell id="8kv1chNitcfREkyRA5XA-9" value="&lt;div style=&quot;font-size: 18px;&quot;&gt;&lt;font style=&quot;font-size: 18px;&quot;&gt;A: Inicio &lt;/font&gt;-&amp;gt; 43 -&amp;gt; 64 -&amp;gt; 85&lt;/div&gt;&lt;div style=&quot;font-size: 18px;&quot;&gt;&lt;font style=&quot;font-size: 18px;&quot;&gt;&lt;br&gt;&lt;/font&gt;&lt;/div&gt;&lt;div style=&quot;font-size: 18px;&quot;&gt;&lt;font style=&quot;font-size: 18px;&quot;&gt;&lt;font style=&quot;font-size: 18px;&quot;&gt;B: Inicio -&amp;gt; &lt;br&gt;&lt;/font&gt;&lt;/font&gt;&lt;/div&gt;" style="text;html=1;align=center;verticalAlign=middle;whiteSpace=wrap;rounded=0;" vertex="1" parent="TRMaIz-ZIz2-oLeZeGUC-1">
          <mxGeometry x="480" y="400" width="320" height="140" as="geometry" />
        </mxCell>
        <mxCell id="8kv1chNitcfREkyRA5XA-10" value="&lt;div style=&quot;font-size: 15px;&quot;&gt;FilaAux: Inicio -&amp;gt; &lt;br&gt;&lt;/div&gt;&lt;div style=&quot;font-size: 15px;&quot;&gt;&lt;br style=&quot;font-size: 15px;&quot;&gt;&lt;/div&gt;&lt;div style=&quot;font-size: 15px;&quot;&gt;FilaResult: Inicio -&amp;gt; 10 -&amp;gt; 32&lt;br style=&quot;font-size: 15px;&quot;&gt;&lt;/div&gt;" style="text;html=1;align=center;verticalAlign=middle;whiteSpace=wrap;rounded=0;fontSize=15;" vertex="1" parent="TRMaIz-ZIz2-oLeZeGUC-1">
          <mxGeometry x="440" y="560" width="280" height="60" as="geometry" />
        </mxCell>
        <mxCell id="8kv1chNitcfREkyRA5XA-11" value="" style="rounded=0;whiteSpace=wrap;html=1;" vertex="1" parent="TRMaIz-ZIz2-oLeZeGUC-1">
          <mxGeometry x="480" y="340" width="90" height="40" as="geometry" />
        </mxCell>
        <mxCell id="8kv1chNitcfREkyRA5XA-12" value="21" style="text;html=1;align=center;verticalAlign=middle;whiteSpace=wrap;rounded=0;" vertex="1" parent="TRMaIz-ZIz2-oLeZeGUC-1">
          <mxGeometry x="480" y="340" width="90" height="40" as="geometry" />
        </mxCell>
      </root>
    </mxGraphModel>
  </diagram>
</mxfile>
